<mxfile host="Electron" modified="2024-03-14T11:01:59.148Z" agent="Mozilla/5.0 (Windows NT 10.0; Win64; x64) AppleWebKit/537.36 (KHTML, like Gecko) draw.io/23.1.5 Chrome/120.0.6099.109 Electron/28.1.0 Safari/537.36" etag="-qVmsrZpIRF5_O5PYM4Z" version="23.1.5" type="device">
  <diagram name="Page-1" id="C3Sw2tQPSon-jp9TXXSG">
    <mxGraphModel dx="1290" dy="621" grid="1" gridSize="10" guides="1" tooltips="1" connect="1" arrows="1" fold="1" page="1" pageScale="1" pageWidth="850" pageHeight="1100" math="0" shadow="0">
      <root>
        <mxCell id="0" />
        <mxCell id="1" parent="0" />
        <mxCell id="gldFEIrJmioXY7gpp3w4-1" value="Book" style="swimlane;fontStyle=1;align=center;verticalAlign=top;childLayout=stackLayout;horizontal=1;startSize=26;horizontalStack=0;resizeParent=1;resizeParentMax=0;resizeLast=0;collapsible=1;marginBottom=0;whiteSpace=wrap;html=1;" parent="1" vertex="1">
          <mxGeometry x="55" y="200" width="210" height="280" as="geometry" />
        </mxCell>
        <mxCell id="gldFEIrJmioXY7gpp3w4-2" value="- title: String&lt;div&gt;- author: String&lt;/div&gt;&lt;div&gt;- isbn: String&lt;/div&gt;&lt;div&gt;- available = boolean&lt;/div&gt;" style="text;strokeColor=none;fillColor=none;align=left;verticalAlign=top;spacingLeft=4;spacingRight=4;overflow=hidden;rotatable=0;points=[[0,0.5],[1,0.5]];portConstraint=eastwest;whiteSpace=wrap;html=1;" parent="gldFEIrJmioXY7gpp3w4-1" vertex="1">
          <mxGeometry y="26" width="210" height="74" as="geometry" />
        </mxCell>
        <mxCell id="gldFEIrJmioXY7gpp3w4-3" value="" style="line;strokeWidth=1;fillColor=none;align=left;verticalAlign=middle;spacingTop=-1;spacingLeft=3;spacingRight=3;rotatable=0;labelPosition=right;points=[];portConstraint=eastwest;strokeColor=inherit;" parent="gldFEIrJmioXY7gpp3w4-1" vertex="1">
          <mxGeometry y="100" width="210" height="8" as="geometry" />
        </mxCell>
        <mxCell id="gldFEIrJmioXY7gpp3w4-4" value="+ Book(title: String, author: String, isbn: String)&lt;br&gt;+ setTitle(title: String)&lt;br&gt;+ getTitle()&lt;br&gt;+ setAuthor(author: String)&lt;div&gt;+ getAuthor()&lt;/div&gt;&lt;div&gt;+ setIsbn(isbn: String)&lt;/div&gt;&lt;div&gt;+ getIsbn()&lt;/div&gt;&lt;div&gt;+ setAvailable(available: boolean)&lt;/div&gt;&lt;div&gt;+ getAvaliable()&lt;/div&gt;" style="text;strokeColor=none;fillColor=none;align=left;verticalAlign=top;spacingLeft=4;spacingRight=4;overflow=hidden;rotatable=0;points=[[0,0.5],[1,0.5]];portConstraint=eastwest;whiteSpace=wrap;html=1;" parent="gldFEIrJmioXY7gpp3w4-1" vertex="1">
          <mxGeometry y="108" width="210" height="172" as="geometry" />
        </mxCell>
        <mxCell id="gldFEIrJmioXY7gpp3w4-19" style="edgeStyle=orthogonalEdgeStyle;rounded=0;orthogonalLoop=1;jettySize=auto;html=1;" parent="1" source="gldFEIrJmioXY7gpp3w4-5" target="gldFEIrJmioXY7gpp3w4-13" edge="1">
          <mxGeometry relative="1" as="geometry" />
        </mxCell>
        <mxCell id="gldFEIrJmioXY7gpp3w4-5" value="Loan" style="swimlane;fontStyle=1;align=center;verticalAlign=top;childLayout=stackLayout;horizontal=1;startSize=26;horizontalStack=0;resizeParent=1;resizeParentMax=0;resizeLast=0;collapsible=1;marginBottom=0;whiteSpace=wrap;html=1;" parent="1" vertex="1">
          <mxGeometry x="325" y="60" width="210" height="220" as="geometry" />
        </mxCell>
        <mxCell id="gldFEIrJmioXY7gpp3w4-6" value="- member: Member&lt;div&gt;- book: book&lt;/div&gt;&lt;div&gt;- date: String&lt;/div&gt;" style="text;strokeColor=none;fillColor=none;align=left;verticalAlign=top;spacingLeft=4;spacingRight=4;overflow=hidden;rotatable=0;points=[[0,0.5],[1,0.5]];portConstraint=eastwest;whiteSpace=wrap;html=1;" parent="gldFEIrJmioXY7gpp3w4-5" vertex="1">
          <mxGeometry y="26" width="210" height="54" as="geometry" />
        </mxCell>
        <mxCell id="gldFEIrJmioXY7gpp3w4-7" value="" style="line;strokeWidth=1;fillColor=none;align=left;verticalAlign=middle;spacingTop=-1;spacingLeft=3;spacingRight=3;rotatable=0;labelPosition=right;points=[];portConstraint=eastwest;strokeColor=inherit;" parent="gldFEIrJmioXY7gpp3w4-5" vertex="1">
          <mxGeometry y="80" width="210" height="8" as="geometry" />
        </mxCell>
        <mxCell id="gldFEIrJmioXY7gpp3w4-8" value="+ Loan(member: Member, book: Book, date: String)&lt;br&gt;+ setMember(member: Member)&lt;br&gt;+ getMember()&lt;br&gt;+ setBook(book: Book)&lt;br&gt;+ getBook()&lt;br&gt;+ setDate(date: String)&lt;br&gt;+ getDate()" style="text;strokeColor=none;fillColor=none;align=left;verticalAlign=top;spacingLeft=4;spacingRight=4;overflow=hidden;rotatable=0;points=[[0,0.5],[1,0.5]];portConstraint=eastwest;whiteSpace=wrap;html=1;" parent="gldFEIrJmioXY7gpp3w4-5" vertex="1">
          <mxGeometry y="88" width="210" height="132" as="geometry" />
        </mxCell>
        <mxCell id="gldFEIrJmioXY7gpp3w4-9" value="Member" style="swimlane;fontStyle=1;align=center;verticalAlign=top;childLayout=stackLayout;horizontal=1;startSize=26;horizontalStack=0;resizeParent=1;resizeParentMax=0;resizeLast=0;collapsible=1;marginBottom=0;whiteSpace=wrap;html=1;" parent="1" vertex="1">
          <mxGeometry x="585" y="200" width="210" height="240" as="geometry" />
        </mxCell>
        <mxCell id="gldFEIrJmioXY7gpp3w4-10" value="- nama: String&lt;br&gt;- id: int&lt;br&gt;- address: String" style="text;strokeColor=none;fillColor=none;align=left;verticalAlign=top;spacingLeft=4;spacingRight=4;overflow=hidden;rotatable=0;points=[[0,0.5],[1,0.5]];portConstraint=eastwest;whiteSpace=wrap;html=1;" parent="gldFEIrJmioXY7gpp3w4-9" vertex="1">
          <mxGeometry y="26" width="210" height="74" as="geometry" />
        </mxCell>
        <mxCell id="gldFEIrJmioXY7gpp3w4-11" value="" style="line;strokeWidth=1;fillColor=none;align=left;verticalAlign=middle;spacingTop=-1;spacingLeft=3;spacingRight=3;rotatable=0;labelPosition=right;points=[];portConstraint=eastwest;strokeColor=inherit;" parent="gldFEIrJmioXY7gpp3w4-9" vertex="1">
          <mxGeometry y="100" width="210" height="8" as="geometry" />
        </mxCell>
        <mxCell id="gldFEIrJmioXY7gpp3w4-12" value="+ Member(nama: String, id: int, address: String)&lt;br&gt;+ setNama(nama: String)&lt;br&gt;+ getNama()&lt;br&gt;+ setId(id: int)&lt;br&gt;+ getId()&lt;br&gt;+ setAddress(address: String)&lt;br&gt;+ getAddress()" style="text;strokeColor=none;fillColor=none;align=left;verticalAlign=top;spacingLeft=4;spacingRight=4;overflow=hidden;rotatable=0;points=[[0,0.5],[1,0.5]];portConstraint=eastwest;whiteSpace=wrap;html=1;" parent="gldFEIrJmioXY7gpp3w4-9" vertex="1">
          <mxGeometry y="108" width="210" height="132" as="geometry" />
        </mxCell>
        <mxCell id="gldFEIrJmioXY7gpp3w4-13" value="Library" style="swimlane;fontStyle=1;align=center;verticalAlign=top;childLayout=stackLayout;horizontal=1;startSize=26;horizontalStack=0;resizeParent=1;resizeParentMax=0;resizeLast=0;collapsible=1;marginBottom=0;whiteSpace=wrap;html=1;" parent="1" vertex="1">
          <mxGeometry x="325" y="370" width="210" height="310" as="geometry" />
        </mxCell>
        <mxCell id="gldFEIrJmioXY7gpp3w4-14" value="- books: Book[]&lt;br&gt;- members: Member[];&lt;br&gt;- loans: Loan[]&lt;br&gt;- bookCount: int&lt;br&gt;- memberCount: int&lt;br&gt;- loanCount: int" style="text;strokeColor=none;fillColor=none;align=left;verticalAlign=top;spacingLeft=4;spacingRight=4;overflow=hidden;rotatable=0;points=[[0,0.5],[1,0.5]];portConstraint=eastwest;whiteSpace=wrap;html=1;" parent="gldFEIrJmioXY7gpp3w4-13" vertex="1">
          <mxGeometry y="26" width="210" height="104" as="geometry" />
        </mxCell>
        <mxCell id="gldFEIrJmioXY7gpp3w4-15" value="" style="line;strokeWidth=1;fillColor=none;align=left;verticalAlign=middle;spacingTop=-1;spacingLeft=3;spacingRight=3;rotatable=0;labelPosition=right;points=[];portConstraint=eastwest;strokeColor=inherit;" parent="gldFEIrJmioXY7gpp3w4-13" vertex="1">
          <mxGeometry y="130" width="210" height="8" as="geometry" />
        </mxCell>
        <mxCell id="gldFEIrJmioXY7gpp3w4-16" value="+ Library(maxBooks: int, maxMembers: int, maxLoans: int)&lt;br&gt;+ addBook(book: Book)&lt;br&gt;+ registerMember(member: Member)&lt;br&gt;+ borrowBook(member: Member, book: Book, date: String)&lt;br&gt;+ getBooks()&lt;br&gt;+ getMembers()&lt;br&gt;+ getLoans()" style="text;strokeColor=none;fillColor=none;align=left;verticalAlign=top;spacingLeft=4;spacingRight=4;overflow=hidden;rotatable=0;points=[[0,0.5],[1,0.5]];portConstraint=eastwest;whiteSpace=wrap;html=1;" parent="gldFEIrJmioXY7gpp3w4-13" vertex="1">
          <mxGeometry y="138" width="210" height="172" as="geometry" />
        </mxCell>
        <mxCell id="gldFEIrJmioXY7gpp3w4-17" style="edgeStyle=orthogonalEdgeStyle;rounded=0;orthogonalLoop=1;jettySize=auto;html=1;entryX=-0.018;entryY=0.067;entryDx=0;entryDy=0;entryPerimeter=0;" parent="1" source="gldFEIrJmioXY7gpp3w4-1" target="gldFEIrJmioXY7gpp3w4-8" edge="1">
          <mxGeometry relative="1" as="geometry">
            <Array as="points">
              <mxPoint x="155" y="157" />
            </Array>
          </mxGeometry>
        </mxCell>
        <mxCell id="gldFEIrJmioXY7gpp3w4-18" style="edgeStyle=orthogonalEdgeStyle;rounded=0;orthogonalLoop=1;jettySize=auto;html=1;entryX=1.003;entryY=1.094;entryDx=0;entryDy=0;entryPerimeter=0;" parent="1" source="gldFEIrJmioXY7gpp3w4-9" target="gldFEIrJmioXY7gpp3w4-6" edge="1">
          <mxGeometry relative="1" as="geometry" />
        </mxCell>
        <mxCell id="gldFEIrJmioXY7gpp3w4-20" style="edgeStyle=orthogonalEdgeStyle;rounded=0;orthogonalLoop=1;jettySize=auto;html=1;entryX=0.003;entryY=-0.008;entryDx=0;entryDy=0;entryPerimeter=0;" parent="1" source="gldFEIrJmioXY7gpp3w4-4" target="gldFEIrJmioXY7gpp3w4-16" edge="1">
          <mxGeometry relative="1" as="geometry" />
        </mxCell>
        <mxCell id="gldFEIrJmioXY7gpp3w4-21" style="edgeStyle=orthogonalEdgeStyle;rounded=0;orthogonalLoop=1;jettySize=auto;html=1;entryX=0.993;entryY=1.033;entryDx=0;entryDy=0;entryPerimeter=0;" parent="1" source="gldFEIrJmioXY7gpp3w4-12" target="gldFEIrJmioXY7gpp3w4-14" edge="1">
          <mxGeometry relative="1" as="geometry" />
        </mxCell>
      </root>
    </mxGraphModel>
  </diagram>
</mxfile>
